<svg width="1080" height="1080" viewBox="0 0 1080 1080" fill="none" xmlns="http://www.w3.org/2000/svg">
<rect width="1080" height="1080" rx="540" fill="black"/>
<g filter="url(#filter0_d_18_2)">
<path d="M267.729 844.25V761.75C235.23 758.75 204.479 752.5 175.479 743C146.979 733.5 122.479 721.5 101.979 707L140.229 599.75C162.229 615.25 188.229 627.5 218.229 636.5C248.23 645.5 278.729 650 309.729 650C340.729 650 362.48 645.75 374.98 637.25C387.48 628.75 393.73 618.25 393.73 605.75C393.73 595.25 389.48 586.5 380.98 579.5C372.48 572 356.98 565.75 334.48 560.75L249.729 542.75C157.729 522.25 111.729 472.5 111.729 393.5C111.729 351.5 125.729 316 153.729 287C182.229 257.5 220.229 238.25 267.729 229.25V143H371.979V227C397.98 230 422.73 236.25 446.23 245.75C470.23 255.25 489.98 267 505.48 281L468.73 381.5C450.73 367.5 429.48 356.75 404.979 349.25C380.48 341.25 354.23 337.25 326.23 337.25C300.229 337.25 279.979 342 265.48 351.5C250.979 361 243.729 373.25 243.729 388.25C243.729 398.25 247.979 406.75 256.479 413.75C264.98 420.25 279.98 426 301.48 431L386.23 449.75C479.73 470.25 526.48 519 526.48 596C526.48 638.5 512.23 674 483.729 702.5C455.229 731 417.98 749.5 371.979 758V844.25H267.729ZM576.437 758V389H706.187V439.25C719.187 420.25 735.937 405.75 756.437 395.75C776.937 385.75 799.937 380.75 825.437 380.75C869.437 380.75 901.937 393.75 922.937 419.75C944.437 445.75 955.187 485.75 955.187 539.75V758H821.687V545C821.687 522.5 817.687 506.5 809.687 497C802.187 487.5 790.937 482.75 775.937 482.75C755.937 482.75 739.937 489.25 727.937 502.25C715.937 514.75 709.937 531.75 709.937 553.25V758H576.437Z" fill="white"/>
</g>
<defs>
<filter id="filter0_d_18_2" x="101.979" y="143" width="867.207" height="715.25" filterUnits="userSpaceOnUse" color-interpolation-filters="sRGB">
<feFlood flood-opacity="0" result="BackgroundImageFix"/>
<feColorMatrix in="SourceAlpha" type="matrix" values="0 0 0 0 0 0 0 0 0 0 0 0 0 0 0 0 0 0 127 0" result="hardAlpha"/>
<feOffset dx="10" dy="10"/>
<feGaussianBlur stdDeviation="2"/>
<feComposite in2="hardAlpha" operator="out"/>
<feColorMatrix type="matrix" values="0 0 0 0 1 0 0 0 0 0.9 0 0 0 0 0 0 0 0 1 0"/>
<feBlend mode="normal" in2="BackgroundImageFix" result="effect1_dropShadow_18_2"/>
<feBlend mode="normal" in="SourceGraphic" in2="effect1_dropShadow_18_2" result="shape"/>
</filter>
</defs>
</svg>